<svg xmlns="http://www.w3.org/2000/svg" width="32" height="32" viewBox="0 0 32 32">
    <g fill="none" fill-rule="evenodd">
        <path d="M0-22h89v76H0z"/>
        <g fill="#FFF" fill-rule="nonzero">
            <g>
                <path d="M16 1.688C8.112 1.688 1.688 8.112 1.688 16c0 7.888 6.424 14.312 14.312 14.312 7.888 0 14.312-6.424 14.312-14.312 0-7.888-6.424-14.312-14.312-14.312zM16 0c8.83 0 16 7.159 16 16 0 8.841-7.17 16-16 16S0 24.841 0 16C0 7.159 7.17 0 16 0z"/>
                <path d="M14 21.537l.044-.049.48-.043c1.119-.101 1.986-.222 2.678-.376l.494-.069.17.407c.089.215.134.436.134.658C18 23.14 17.105 24 16 24c-1.091 0-2-.878-2-1.935v-.528z"/>
                <path d="M15.954 9.602c-.166 0-.33.144-.33.266l-.033 1.167-.506.181c-1.348.481-2.281 1.982-2.281 3.696 0 1.22-.648 3.59-1.416 4.934.118.034.247.067.382.1.995.202 1.94.332 2.85.387.733.051 1.024.065 1.385.065.362 0 .653-.014 1.393-.065 1.094-.067 2.065-.198 2.842-.386.141-.029.268-.058.352-.017-.745-1.407-1.386-3.763-1.386-5.018 0-1.704-.925-3.185-2.294-3.7l-.526-.233V9.903c-.02-.2-.159-.301-.432-.301zm-1.975.266c0-1.01.901-1.868 1.975-1.868 1.134 0 2.002.739 2.076 1.817l.001.051-.027.07c1.742.898 2.847 2.826 2.847 4.974 0 1.239.885 4.086 1.55 4.821l.599.753-.794.464c-.417.243-.913.42-1.6.558-.849.206-1.914.351-3.098.423-.78.054-1.094.069-1.503.069-.409 0-.723-.015-1.496-.068-.989-.06-2.008-.201-3.105-.424-.747-.182-1.268-.365-1.6-.558L9 20.41l.609-.676c.645-.717 1.55-3.62 1.55-4.823 0-2.148 1.101-4.087 2.82-4.967v-.077z"/>
            </g>
        </g>
    </g>
</svg>
