<svg xmlns="http://www.w3.org/2000/svg" viewBox="-20 -20 140 140" xmlns:xlink="http://www.w3.org/1999/xlink" version="1.1"  ><rect width="100%" height="100%" x="-20" y="-20" fill="#f5f6fa" ></rect><g transform="translate(49.5 50) scale(2.857142857142857)" id="circleSvgTemplate"><g fill="#3569e7"><g transform="translate(-17.325 -17.5) scale(0.3431372549019608)" id="container"><g fill="#3569e7"><circle vector-effect="non-scaling-stroke" cx="51" cy="51" r="50"></circle></g></g><g transform="translate(-10 -10.2) scale(0.19999999999999998)" id="icon"><g fill="#f5f6fa"><path d="M50 7c23.7 0 43 19.3 43 43S73.7 93 50 93 7 73.7 7 50 26.3 7 50 7m0-2C25.2 5 5 25.1 5 50s20.2 45 45 45 45-20.1 45-45S74.8 5 50 5z"></path><path d="M60.6 68.6c-.4 1-1.3 1.6-2.4 1.6-.8 0-1.6-.4-2-1 1.5-.1 3-.3 4.4-.6m1.9-2.4c-2.6.6-5.7 1-8.9 1.3v.2c0 2.5 2.1 4.6 4.6 4.6s4.6-2 4.6-4.6c0-.5-.1-1-.3-1.5z"></path><path d="M50 29.8c1.3 0 2.3 1 2.3 2.3v.4l-.3 1.7 1.6.6c4.9 1.9 8.2 7.2 8.2 13.3 0 3 2.2 12.7 5.1 16-.5.3-1.6.9-4 1.4-2.4.6-5.4 1-8.6 1.2-1.4.1-2.8.2-4.2.2-1.4 0-2.8-.1-4.2-.2-3.2-.2-6.2-.7-8.6-1.2-2.4-.6-3.5-1.1-4-1.4 2.8-3.2 5.1-13 5.1-16 0-6.1 3.3-11.5 8.2-13.3l1.6-.6-.3-1.6v-.4c-.3-1.4.8-2.4 2.1-2.4m0-2c-2.4 0-4.4 1.9-4.4 4.3 0 .3 0 .5.1.8-5.5 2.1-9.5 8.1-9.5 15.2 0 3-2.3 12.4-4.7 14.8-1.9 1.9.8 3.5 5.2 4.5 2.6.6 5.7 1 8.9 1.3 1.5.1 3 .2 4.4.2 1.4 0 2.9-.1 4.4-.2 3.2-.2 6.3-.7 8.9-1.3 4.4-1 7.1-2.6 5.2-4.5-2.4-2.4-4.7-11.8-4.7-14.8 0-7.1-4-13.1-9.5-15.2 0-.3.1-.5.1-.8 0-2.4-2-4.3-4.4-4.3z"></path></g></g></g></g></svg>